<svg xmlns="http://www.w3.org/2000/svg" width="39" height="40" viewBox="0 0 39 40">
  <g>
      <g>
        <path fill="#fff" d="M38.999 22.29c-.031 2.023-.492 4.155-1.336 6.17a18.655 18.655 0 0 1-3.745 5.704 18.457 18.457 0 0 1-6.056 4.203C25.352 39.453 22.59 40 19.642 40 14.17 40 8.905 37.633 5.19 33.508 1.407 29.313-.412 23.82.08 18.039c.407-4.797 2.632-9.328 6.27-12.742C9.98 1.883 14.562 0 19.243 0h.039c1.32 0 2.41.625 2.9 1.672.477.992.308 2.203-.429 3.156-.982 1.266-1.274 2.735-.829 4.016.599-.383 1.213-.75 1.834-1.117 3.592-2.118 7.138-3.82 9.986-4.797 3.369-1.157 5.242-1.164 5.886-.024.584 1.024-.115 2.446-2.195 4.461-1.366 1.328-3.277 2.844-5.495 4.367 2.318.43 4.244 1.493 5.641 3.141 1.62 1.914 2.456 4.477 2.418 7.414zm-18.988-11c.468.554.89 1.155 1.25 1.796.377.656.684 1.351.922 2.062a78.283 78.283 0 0 0 3.653-2.015 71.335 71.335 0 0 0 2.617-1.61c2.679-1.718 5.043-3.507 6.662-5.023 1.942-1.82 2.164-2.633 2.188-2.813-.284-.132-1.497-.203-4.452.86-2.686.969-5.994 2.578-9.317 4.531a77.792 77.792 0 0 0-2.518 1.547c-.345.219-.683.445-1.005.664zm-.085 2.577a9.816 9.816 0 0 0-1.205-1.703c-1.972 1.383-3.645 2.742-4.835 3.906.284.266.53.578.722.922.207.36.353.75.437 1.156 1.589-.46 3.577-1.257 5.74-2.304a10.45 10.45 0 0 0-.859-1.977zm8.988-.773h-.016c-.744.476-1.52.945-2.294 1.406a73.404 73.404 0 0 1-4.56 2.477c-2.663 1.32-5.126 2.304-7.007 2.804-.23 1.07-.89 2-1.834 2.555-.875.508-2.702.64-4.329.64-1.343 0-2.548-.093-2.97-.124a.785.785 0 0 1-.637-1.117c.4-.868 2.494-5.235 4.09-6.172a3.769 3.769 0 0 1 3.155-.313c1.366-1.406 3.431-3.07 5.872-4.75h.007c.392-.273.79-.54 1.205-.813-.775-1.843-.43-4.046.952-5.828.376-.484.468-1.047.253-1.507-.238-.5-.79-.79-1.527-.79h-.03c-8.95 0-16.863 7.454-17.638 16.61-.453 5.336 1.22 10.414 4.705 14.281 3.43 3.805 8.289 5.984 13.331 5.984 10.868 0 17.707-8.39 17.814-16.164.061-4.32-2.149-9-8.542-9.18zM13.272 17.78a2.32 2.32 0 0 0-.929-.906 2.246 2.246 0 0 0-2.218.047c-.721.422-2.018 2.594-2.962 4.445 2.049.094 4.536.04 5.265-.39a2.32 2.32 0 0 0 1.151-1.883 2.294 2.294 0 0 0-.307-1.313z"/>
      </g>
    </g>
  </svg>