<svg xmlns="http://www.w3.org/2000/svg" width="39" height="35" viewBox="0 0 39 35"><g><g><path fill="#fff" d="M34.24 8.285c2.681.355 4.76 2.702 4.76 5.537s-2.079 5.182-4.76 5.537v6.413c0 .706-.356 1.34-.951 1.698-.305.182-.641.274-.978.274-.324 0-.648-.085-.946-.255a44.142 44.142 0 0 0-17.353-5.619l3.762 10.605a1.99 1.99 0 0 1-.23 1.787 1.9 1.9 0 0 1-1.566.833h-4.394a1.92 1.92 0 0 1-1.796-1.285L5.409 21.46a3.009 3.009 0 0 1-1.735-2.397h-1.23C1.095 19.063 0 17.943 0 16.566v-5.485c0-1.377 1.096-2.497 2.443-2.497h1.23C3.847 7.092 5.09 5.93 6.597 5.93c0 0 5.995-.026 6.046-.03A44.18 44.18 0 0 0 31.365.155a1.881 1.881 0 0 1 1.924.02c.595.356.951.991.951 1.697zM3.653 10.51h-1.21a.566.566 0 0 0-.559.57v5.486c0 .315.25.571.56.571h1.209zm2.876 9.278l5.196.003V7.856H6.596c-.584 0-1.06.486-1.06 1.082v9.77c0 .44.26.819.629.988.135.06.175.07.364.092zm5.424 1.928H7.504l4.055 11.437c.003.01.014.016.025.016h4.394c.008 0 .014 0 .022-.011.008-.012.006-.018.003-.026zM32.356 1.872c0-.014 0-.025-.02-.037-.024-.014-.04-.006-.051 0A46.004 46.004 0 0 1 13.609 7.75v12.147a45.992 45.992 0 0 1 18.676 5.913c.012.006.026.014.05 0 .02-.012.02-.023.02-.037zM34.24 17.41c1.638-.336 2.876-1.817 2.876-3.588 0-1.771-1.238-3.252-2.876-3.588z"/></g></g></svg>