<svg xmlns="http://www.w3.org/2000/svg" width="32" height="31" viewBox="0 0 32 31"><g><g><g><path fill="none" stroke="#fff" stroke-linecap="round" stroke-linejoin="round" stroke-miterlimit="20" stroke-width="2" d="M20.938 13.653c-.427-2.624-1.268-5.072-2.222-6.633-.529-.866-1.61-1.265-2.53-.863-1.177.515-1.579 1.946-.922 3 1.095 1.759 1.675 5.782 1.417 9.044-.094 1.182-1.538 1.673-2.33.804l-1.28-1.408a2.326 2.326 0 0 0-3.33-.1 2.432 2.432 0 0 0-.1 3.393L16.527 30v0h12.117v0l2.2-8.519c.65-2.512-.78-5.094-3.227-5.827z"/></g><g><path fill="none" stroke="#fff" stroke-linecap="round" stroke-linejoin="round" stroke-miterlimit="20" stroke-width="2" d="M1 7c0-2.733 2.394-5 5.282-5C8.394 2 10.155 3.159 11 4.826"/></g><g><path fill="none" stroke="#fff" stroke-linecap="round" stroke-linejoin="round" stroke-miterlimit="20" stroke-width="2" d="M11 1v0l-.163 3.652v0L8 5v0"/></g><g><path fill="none" stroke="#fff" stroke-linecap="round" stroke-linejoin="round" stroke-miterlimit="20" stroke-width="2" d="M12 7c0 2.733-2.394 5-5.282 5C4.606 12 2.845 10.841 2 9.174"/></g><g><path fill="none" stroke="#fff" stroke-linecap="round" stroke-linejoin="round" stroke-miterlimit="20" stroke-width="2" d="M2 13v0l.163-3.652v0L5 9v0"/></g></g></g></svg>