<svg xmlns="http://www.w3.org/2000/svg" width="122" height="125" viewBox="0 0 122 125"><g><g><path fill="#f74d4d" d="M60.505 67A3.498 3.498 0 0 1 64 70.5c0 1.933-1.565 3.5-3.495 3.5A3.506 3.506 0 0 1 57 70.5c0-1.933 1.558-3.5 3.488-3.5h.017m0 18A3.498 3.498 0 0 1 64 88.502 3.497 3.497 0 0 1 60.505 92 3.505 3.505 0 0 1 57 88.502 3.492 3.492 0 0 1 60.488 85h.017m0 33A3.498 3.498 0 0 1 64 121.501 3.496 3.496 0 0 1 60.505 125 3.505 3.505 0 0 1 57 121.501 3.492 3.492 0 0 1 60.488 118h.017m0-17A3.497 3.497 0 0 1 64 104.501 3.498 3.498 0 0 1 60.505 108 3.506 3.506 0 0 1 57 104.501 3.49 3.49 0 0 1 60.488 101h.017m20-84A3.498 3.498 0 0 1 84 20.5c0 1.933-1.565 3.5-3.495 3.5A3.506 3.506 0 0 1 77 20.5a3.49 3.49 0 0 1 3.486-3.5h.019m-20 34A3.496 3.496 0 0 1 64 54.5a3.5 3.5 0 1 1-7 0 3.49 3.49 0 0 1 3.488-3.5h.017m-19 41A3.505 3.505 0 0 1 38 88.502 3.49 3.49 0 0 1 41.488 85h.017A3.498 3.498 0 0 1 45 88.502 3.497 3.497 0 0 1 41.505 92m0 16A3.506 3.506 0 0 1 38 104.501 3.49 3.49 0 0 1 41.488 101h.017A3.497 3.497 0 0 1 45 104.501 3.498 3.498 0 0 1 41.505 108m19-108A3.498 3.498 0 0 1 64 3.5C64 5.433 62.435 7 60.505 7A3.506 3.506 0 0 1 57 3.5C57 1.567 58.558 0 60.488 0h.017m0 17A3.498 3.498 0 0 1 64 20.5c0 1.933-1.565 3.5-3.495 3.5A3.506 3.506 0 0 1 57 20.5c0-1.933 1.558-3.5 3.488-3.5h.017m0 16A3.498 3.498 0 0 1 64 36.5a3.5 3.5 0 1 1-7 0c0-1.933 1.558-3.5 3.488-3.5h.017m58 41A3.505 3.505 0 0 1 115 70.5a3.49 3.49 0 0 1 3.487-3.5h.019A3.498 3.498 0 0 1 122 70.5c0 1.933-1.566 3.5-3.494 3.5m0-16A3.507 3.507 0 0 1 115 54.5c0-1.935 1.556-3.5 3.487-3.5h.019A3.496 3.496 0 0 1 122 54.5a3.5 3.5 0 0 1-3.494 3.5m-1.364-18.275A3.503 3.503 0 0 1 115 36.5 3.492 3.492 0 0 1 118.487 33h.019A3.5 3.5 0 0 1 122 36.501c0 .902-.363 1.71-.927 2.329-.311.346-.679.626-1.106.826-.014.007-.024.019-.038.026a3.442 3.442 0 0 1-1.423.318c-.484 0-.944-.097-1.364-.275m-73.166 79.301c.052.05.073.124.123.18.543.618.901 1.407.901 2.295 0 .007-.005.01-.005.014a3.397 3.397 0 0 1-.251 1.262c-.104.259-.273.472-.432.698-.073.102-.123.216-.208.309-.524.6-1.245.98-2.07 1.11l-.008.001c-.177.029-.336.105-.521.105-.98 0-1.862-.406-2.497-1.057-.003 0-.003-.002-.005-.005A3.489 3.489 0 0 1 41.486 118h.019c.808 0 1.517.32 2.108.781.116.088.258.14.363.245M41.505 74A3.506 3.506 0 0 1 38 70.5a3.49 3.49 0 0 1 3.488-3.5h.017A3.498 3.498 0 0 1 45 70.5c0 1.933-1.565 3.5-3.495 3.5m39 27A3.497 3.497 0 0 1 84 104.501 3.498 3.498 0 0 1 80.505 108 3.506 3.506 0 0 1 77 104.501 3.489 3.489 0 0 1 80.486 101h.019m0-50A3.496 3.496 0 0 1 84 54.5a3.5 3.5 0 1 1-7 0c0-1.935 1.556-3.5 3.486-3.5h.019m0 16A3.498 3.498 0 0 1 84 70.5c0 1.933-1.565 3.5-3.495 3.5A3.506 3.506 0 0 1 77 70.5a3.49 3.49 0 0 1 3.486-3.5h.019m0 18A3.498 3.498 0 0 1 84 88.502 3.497 3.497 0 0 1 80.505 92 3.505 3.505 0 0 1 77 88.502 3.49 3.49 0 0 1 80.486 85h.019m0-52A3.498 3.498 0 0 1 84 36.5a3.5 3.5 0 1 1-7 0 3.49 3.49 0 0 1 3.486-3.5h.019m19-16A3.498 3.498 0 0 1 103 20.5c0 1.933-1.565 3.5-3.495 3.5A3.506 3.506 0 0 1 96 20.5a3.49 3.49 0 0 1 3.486-3.5h.019m-19-10A3.507 3.507 0 0 1 77 3.5C77 1.567 78.557 0 80.487 0h.019c.751 0 1.41.29 1.982.696h.002c.42.299.766.672 1.02 1.12.025.043.056.076.08.122.242.474.408.99.408 1.557A3.497 3.497 0 0 1 80.506 7m18.999 78A3.498 3.498 0 0 1 103 88.502 3.497 3.497 0 0 1 99.505 92 3.505 3.505 0 0 1 96 88.502 3.49 3.49 0 0 1 99.486 85h.019m0 16a3.497 3.497 0 0 1 3.495 3.501A3.498 3.498 0 0 1 99.505 108 3.506 3.506 0 0 1 96 104.501 3.489 3.489 0 0 1 99.486 101h.019m0-68A3.498 3.498 0 0 1 103 36.5a3.5 3.5 0 1 1-7 0 3.49 3.49 0 0 1 3.486-3.5h.019m0 34A3.498 3.498 0 0 1 103 70.5c0 1.933-1.565 3.5-3.495 3.5A3.506 3.506 0 0 1 96 70.5a3.49 3.49 0 0 1 3.486-3.5h.019m-96-34c1.448 0 2.69.88 3.22 2.14.178.417.275.878.275 1.36 0 .482-.097.943-.275 1.36A3.491 3.491 0 0 1 3.505 40c-.462 0-.893-.097-1.29-.261-.282-.112-.512-.295-.751-.47-.088-.067-.193-.11-.276-.186-.61-.546-.991-1.298-1.1-2.15-.003-.003-.005-.006-.005-.01h.002C.066 36.775 0 36.65 0 36.5c0-1.183.617-2.175 1.511-2.809.002-.002.002-.002.005-.002.265-.19.54-.354.856-.463A2.982 2.982 0 0 1 3.485 33h.02m96 18A3.496 3.496 0 0 1 103 54.5a3.5 3.5 0 1 1-7 0c0-1.935 1.556-3.5 3.486-3.5h.019m-96 34A3.495 3.495 0 0 1 7 88.502 3.496 3.496 0 0 1 3.506 92c-.007 0-.012-.005-.019-.005-.546-.002-1.044-.152-1.506-.377h-.003v-.003C.818 91.045 0 89.88 0 88.502c0-.323.1-.612.18-.907v-.002l.003-.002c.095-.347.234-.656.424-.95.033-.055.067-.1.1-.15.175-.242.356-.46.586-.648.133-.116.282-.2.43-.292.175-.107.336-.226.53-.3A3.313 3.313 0 0 1 3.485 85h.02m.002-34A3.494 3.494 0 0 1 7 54.5C7 56.43 5.437 58 3.507 58A3.51 3.51 0 0 1 0 54.5C0 52.565 1.556 51 3.486 51h.021m0 16A3.496 3.496 0 0 1 7 70.5C7 72.433 5.437 74 3.507 74A3.508 3.508 0 0 1 0 70.5 3.49 3.49 0 0 1 3.486 67h.021m18.998-16a3.5 3.5 0 0 1 0 7A3.507 3.507 0 0 1 19 54.5c0-1.935 1.556-3.5 3.486-3.5h.019m19-44A3.506 3.506 0 0 1 38 3.5 3.49 3.49 0 0 1 41.488 0h.017A3.498 3.498 0 0 1 45 3.5C45 5.433 43.435 7 41.505 7m0 33A3.507 3.507 0 0 1 38 36.5a3.49 3.49 0 0 1 3.488-3.5h.017A3.498 3.498 0 0 1 45 36.5a3.5 3.5 0 0 1-3.495 3.5m0-16A3.506 3.506 0 0 1 38 20.5a3.49 3.49 0 0 1 3.488-3.5h.017A3.498 3.498 0 0 1 45 20.5c0 1.933-1.565 3.5-3.495 3.5m-19 61A3.5 3.5 0 1 1 19 88.502 3.49 3.49 0 0 1 22.486 85h.019m0-18A3.5 3.5 0 0 1 26 70.5a3.5 3.5 0 1 1-7 0 3.49 3.49 0 0 1 3.486-3.5h.019m0-50A3.5 3.5 0 0 1 26 20.5a3.5 3.5 0 1 1-7 0 3.49 3.49 0 0 1 3.486-3.5h.019m19 41A3.507 3.507 0 0 1 38 54.5c0-1.935 1.556-3.5 3.488-3.5h.017A3.496 3.496 0 0 1 45 54.5a3.5 3.5 0 0 1-3.495 3.5m-19 43A3.498 3.498 0 0 1 26 104.501a3.5 3.5 0 0 1-7 0A3.489 3.489 0 0 1 22.486 101h.019m0-68A3.5 3.5 0 1 1 19 36.5a3.49 3.49 0 0 1 3.486-3.5h.019m97.297 52.264A3.493 3.493 0 0 1 118.505 92c-.088 0-.164-.043-.25-.05v.003c-.004-.003-.009-.005-.013-.005-.897-.071-1.698-.451-2.28-1.069-.08-.085-.123-.2-.198-.292-.183-.244-.377-.477-.496-.767a3.415 3.415 0 0 1-.268-1.318A3.49 3.49 0 0 1 118.486 85h.019c.07 0 .125.038.194.04.387.026.764.081 1.103.224M80.505 118A3.497 3.497 0 0 1 84 121.501c0 .007-.005.012-.005.02-.002.37-.085.707-.206 1.03-.453 1.413-1.726 2.449-3.284 2.449-.503 0-.977-.116-1.411-.309h-.003a3.509 3.509 0 0 1-.939-.632c-.102-.092-.182-.2-.272-.304a3.403 3.403 0 0 1-.467-.69c-.06-.117-.119-.224-.166-.348a3.401 3.401 0 0 1-.247-1.216c0-.097.047-.18.055-.275.07-.85.398-1.63.965-2.2.102-.102.244-.154.358-.245.59-.46 1.3-.781 2.108-.781h.019"/></g></g></svg>