<svg xmlns="http://www.w3.org/2000/svg" width="36" height="32" viewBox="0 0 36 32"><g><g><path fill="#fff" d="M33.827-.04C35.023-.04 36 .937 36 2.133v21.853a2.179 2.179 0 0 1-2.173 2.172H22.978v1.582a2.635 2.635 0 0 0 2.63 2.63h2.39c.457 0 .83.373.83.83 0 .457-.373.83-.83.83H8.002a.831.831 0 0 1-.83-.83c0-.457.373-.83.83-.83h2.39a2.635 2.635 0 0 0 2.63-2.63v-1.582H2.172A2.179 2.179 0 0 1 0 23.986V2.133C0 .937.977-.04 2.173-.04zM22.226 30.377a4.239 4.239 0 0 1-.907-2.63v-1.582H14.68v1.582c0 .992-.344 1.906-.907 2.63zm12.115-6.384v-4.36H1.659v4.36c0 .281.232.513.514.513h31.654a.516.516 0 0 0 .514-.513zm0-21.86a.516.516 0 0 0-.514-.514H2.173a.516.516 0 0 0-.514.514v15.834h32.682z"/></g></g></svg>